<?xml version="1.0" encoding="utf-8" standalone="no"?>
<!DOCTYPE svg PUBLIC "-//W3C//DTD SVG 1.1//EN"
  "http://www.w3.org/Graphics/SVG/1.1/DTD/svg11.dtd">
<svg xmlns:xlink="http://www.w3.org/1999/xlink" width="720pt" height="216pt" viewBox="0 0 720 216" xmlns="http://www.w3.org/2000/svg" version="1.1">
 <metadata>
  <rdf:RDF xmlns:dc="http://purl.org/dc/elements/1.1/" xmlns:cc="http://creativecommons.org/ns#" xmlns:rdf="http://www.w3.org/1999/02/22-rdf-syntax-ns#">
   <cc:Work>
    <dc:type rdf:resource="http://purl.org/dc/dcmitype/StillImage"/>
    <dc:date>2022-08-10T16:15:29.282088</dc:date>
    <dc:format>image/svg+xml</dc:format>
    <dc:creator>
     <cc:Agent>
      <dc:title>Matplotlib v3.5.2, https://matplotlib.org/</dc:title>
     </cc:Agent>
    </dc:creator>
   </cc:Work>
  </rdf:RDF>
 </metadata>
 <defs>
  <style type="text/css">*{stroke-linejoin: round; stroke-linecap: butt}</style>
 </defs>
 <g id="figure_1">
  <g id="patch_1">
   <path d="M 0 216 
L 720 216 
L 720 0 
L 0 0 
z
" style="fill: #ffffff"/>
  </g>
  <g id="axes_1">
   <g id="patch_2">
    <path d="M 90 143.418095 
L 648 143.418095 
L 648 74.741905 
L 90 74.741905 
z
" style="fill: #ffffff"/>
   </g>
   <g id="matplotlib.axis_1">
    <g id="xtick_1">
     <g id="line2d_1">
      <defs>
       <path id="m9fe3472590" d="M 0 0 
L 0 3.5 
" style="stroke: #000000; stroke-width: 0.8"/>
      </defs>
      <g>
       <use xlink:href="#m9fe3472590" x="115.360682" y="143.418095" style="stroke: #000000; stroke-width: 0.8"/>
      </g>
     </g>
     <g id="text_1">
      <!-- 0.0 -->
      <g transform="translate(107.409119 158.016532)scale(0.1 -0.1)">
       <defs>
        <path id="DejaVuSans-30" d="M 2034 4250 
Q 1547 4250 1301 3770 
Q 1056 3291 1056 2328 
Q 1056 1369 1301 889 
Q 1547 409 2034 409 
Q 2525 409 2770 889 
Q 3016 1369 3016 2328 
Q 3016 3291 2770 3770 
Q 2525 4250 2034 4250 
z
M 2034 4750 
Q 2819 4750 3233 4129 
Q 3647 3509 3647 2328 
Q 3647 1150 3233 529 
Q 2819 -91 2034 -91 
Q 1250 -91 836 529 
Q 422 1150 422 2328 
Q 422 3509 836 4129 
Q 1250 4750 2034 4750 
z
" transform="scale(0.015625)"/>
        <path id="DejaVuSans-2e" d="M 684 794 
L 1344 794 
L 1344 0 
L 684 0 
L 684 794 
z
" transform="scale(0.015625)"/>
       </defs>
       <use xlink:href="#DejaVuSans-30"/>
       <use xlink:href="#DejaVuSans-2e" x="63.623047"/>
       <use xlink:href="#DejaVuSans-30" x="95.410156"/>
      </g>
     </g>
    </g>
    <g id="xtick_2">
     <g id="line2d_2">
      <g>
       <use xlink:href="#m9fe3472590" x="216.815818" y="143.418095" style="stroke: #000000; stroke-width: 0.8"/>
      </g>
     </g>
     <g id="text_2">
      <!-- 0.2 -->
      <g transform="translate(208.864256 158.016532)scale(0.1 -0.1)">
       <defs>
        <path id="DejaVuSans-32" d="M 1228 531 
L 3431 531 
L 3431 0 
L 469 0 
L 469 531 
Q 828 903 1448 1529 
Q 2069 2156 2228 2338 
Q 2531 2678 2651 2914 
Q 2772 3150 2772 3378 
Q 2772 3750 2511 3984 
Q 2250 4219 1831 4219 
Q 1534 4219 1204 4116 
Q 875 4013 500 3803 
L 500 4441 
Q 881 4594 1212 4672 
Q 1544 4750 1819 4750 
Q 2544 4750 2975 4387 
Q 3406 4025 3406 3419 
Q 3406 3131 3298 2873 
Q 3191 2616 2906 2266 
Q 2828 2175 2409 1742 
Q 1991 1309 1228 531 
z
" transform="scale(0.015625)"/>
       </defs>
       <use xlink:href="#DejaVuSans-30"/>
       <use xlink:href="#DejaVuSans-2e" x="63.623047"/>
       <use xlink:href="#DejaVuSans-32" x="95.410156"/>
      </g>
     </g>
    </g>
    <g id="xtick_3">
     <g id="line2d_3">
      <g>
       <use xlink:href="#m9fe3472590" x="318.270954" y="143.418095" style="stroke: #000000; stroke-width: 0.8"/>
      </g>
     </g>
     <g id="text_3">
      <!-- 0.4 -->
      <g transform="translate(310.319392 158.016532)scale(0.1 -0.1)">
       <defs>
        <path id="DejaVuSans-34" d="M 2419 4116 
L 825 1625 
L 2419 1625 
L 2419 4116 
z
M 2253 4666 
L 3047 4666 
L 3047 1625 
L 3713 1625 
L 3713 1100 
L 3047 1100 
L 3047 0 
L 2419 0 
L 2419 1100 
L 313 1100 
L 313 1709 
L 2253 4666 
z
" transform="scale(0.015625)"/>
       </defs>
       <use xlink:href="#DejaVuSans-30"/>
       <use xlink:href="#DejaVuSans-2e" x="63.623047"/>
       <use xlink:href="#DejaVuSans-34" x="95.410156"/>
      </g>
     </g>
    </g>
    <g id="xtick_4">
     <g id="line2d_4">
      <g>
       <use xlink:href="#m9fe3472590" x="419.726091" y="143.418095" style="stroke: #000000; stroke-width: 0.8"/>
      </g>
     </g>
     <g id="text_4">
      <!-- 0.6 -->
      <g transform="translate(411.774528 158.016532)scale(0.1 -0.1)">
       <defs>
        <path id="DejaVuSans-36" d="M 2113 2584 
Q 1688 2584 1439 2293 
Q 1191 2003 1191 1497 
Q 1191 994 1439 701 
Q 1688 409 2113 409 
Q 2538 409 2786 701 
Q 3034 994 3034 1497 
Q 3034 2003 2786 2293 
Q 2538 2584 2113 2584 
z
M 3366 4563 
L 3366 3988 
Q 3128 4100 2886 4159 
Q 2644 4219 2406 4219 
Q 1781 4219 1451 3797 
Q 1122 3375 1075 2522 
Q 1259 2794 1537 2939 
Q 1816 3084 2150 3084 
Q 2853 3084 3261 2657 
Q 3669 2231 3669 1497 
Q 3669 778 3244 343 
Q 2819 -91 2113 -91 
Q 1303 -91 875 529 
Q 447 1150 447 2328 
Q 447 3434 972 4092 
Q 1497 4750 2381 4750 
Q 2619 4750 2861 4703 
Q 3103 4656 3366 4563 
z
" transform="scale(0.015625)"/>
       </defs>
       <use xlink:href="#DejaVuSans-30"/>
       <use xlink:href="#DejaVuSans-2e" x="63.623047"/>
       <use xlink:href="#DejaVuSans-36" x="95.410156"/>
      </g>
     </g>
    </g>
    <g id="xtick_5">
     <g id="line2d_5">
      <g>
       <use xlink:href="#m9fe3472590" x="521.181227" y="143.418095" style="stroke: #000000; stroke-width: 0.8"/>
      </g>
     </g>
     <g id="text_5">
      <!-- 0.8 -->
      <g transform="translate(513.229665 158.016532)scale(0.1 -0.1)">
       <defs>
        <path id="DejaVuSans-38" d="M 2034 2216 
Q 1584 2216 1326 1975 
Q 1069 1734 1069 1313 
Q 1069 891 1326 650 
Q 1584 409 2034 409 
Q 2484 409 2743 651 
Q 3003 894 3003 1313 
Q 3003 1734 2745 1975 
Q 2488 2216 2034 2216 
z
M 1403 2484 
Q 997 2584 770 2862 
Q 544 3141 544 3541 
Q 544 4100 942 4425 
Q 1341 4750 2034 4750 
Q 2731 4750 3128 4425 
Q 3525 4100 3525 3541 
Q 3525 3141 3298 2862 
Q 3072 2584 2669 2484 
Q 3125 2378 3379 2068 
Q 3634 1759 3634 1313 
Q 3634 634 3220 271 
Q 2806 -91 2034 -91 
Q 1263 -91 848 271 
Q 434 634 434 1313 
Q 434 1759 690 2068 
Q 947 2378 1403 2484 
z
M 1172 3481 
Q 1172 3119 1398 2916 
Q 1625 2713 2034 2713 
Q 2441 2713 2670 2916 
Q 2900 3119 2900 3481 
Q 2900 3844 2670 4047 
Q 2441 4250 2034 4250 
Q 1625 4250 1398 4047 
Q 1172 3844 1172 3481 
z
" transform="scale(0.015625)"/>
       </defs>
       <use xlink:href="#DejaVuSans-30"/>
       <use xlink:href="#DejaVuSans-2e" x="63.623047"/>
       <use xlink:href="#DejaVuSans-38" x="95.410156"/>
      </g>
     </g>
    </g>
    <g id="xtick_6">
     <g id="line2d_6">
      <g>
       <use xlink:href="#m9fe3472590" x="622.636364" y="143.418095" style="stroke: #000000; stroke-width: 0.8"/>
      </g>
     </g>
     <g id="text_6">
      <!-- 1.0 -->
      <g transform="translate(614.684801 158.016532)scale(0.1 -0.1)">
       <defs>
        <path id="DejaVuSans-31" d="M 794 531 
L 1825 531 
L 1825 4091 
L 703 3866 
L 703 4441 
L 1819 4666 
L 2450 4666 
L 2450 531 
L 3481 531 
L 3481 0 
L 794 0 
L 794 531 
z
" transform="scale(0.015625)"/>
       </defs>
       <use xlink:href="#DejaVuSans-31"/>
       <use xlink:href="#DejaVuSans-2e" x="63.623047"/>
       <use xlink:href="#DejaVuSans-30" x="95.410156"/>
      </g>
     </g>
    </g>
   </g>
   <g id="matplotlib.axis_2"/>
   <g id="line2d_7">
    <path d="M 622.636364 117.870331 
L 614.029164 115.783716 
L 600.539283 112.715428 
L 584.937563 109.440953 
L 568.594408 106.284679 
L 552.0418 103.333295 
L 535.419999 100.582742 
L 518.76482 98.011496 
L 493.743852 94.44667 
L 468.695543 91.189527 
L 443.638306 88.216003 
L 418.591061 85.527265 
L 393.574558 83.147842 
L 376.925415 81.755096 
L 360.308992 80.537857 
L 343.738324 79.517672 
L 327.242835 78.719277 
L 310.911652 78.17001 
L 294.763444 77.892865 
L 278.731199 77.911713 
L 262.815475 78.255169 
L 247.039303 78.952977 
L 231.43875 80.034797 
L 223.719891 80.728701 
L 216.066267 81.52912 
L 208.488989 82.439068 
L 201.002107 83.461061 
L 193.624391 84.596708 
L 186.381103 85.8461 
L 179.306687 87.206791 
L 172.448016 88.672213 
L 165.866631 90.229696 
L 159.638057 91.858547 
L 153.84475 93.529522 
L 148.561013 95.207383 
L 143.834649 96.856782 
L 139.675212 98.449094 
L 136.055475 99.966651 
L 130.216656 102.759708 
L 125.838491 105.26518 
L 122.516404 107.55736 
L 119.977783 109.710104 
L 118.058763 111.783642 
L 116.673903 113.819929 
L 115.789918 115.834863 
L 115.531555 116.830929 
L 115.363636 118.509499 
L 115.445042 119.518549 
L 115.649286 120.3979 
L 115.985438 121.29118 
L 116.4584 122.192036 
L 117.068464 123.091272 
L 118.696173 124.864346 
L 120.879278 126.597324 
L 123.6871 128.307744 
L 127.276273 130.024841 
L 131.922462 131.77712 
L 134.769846 132.671642 
L 138.055348 133.57689 
L 141.853037 134.486588 
L 146.23074 135.388224 
L 151.232889 136.262439 
L 156.862868 137.084927 
L 163.075139 137.831109 
L 169.785732 138.481831 
L 176.895505 139.026837 
L 184.311875 139.464637 
L 199.783733 140.041317 
L 215.811463 140.280106 
L 232.195808 140.255432 
L 248.831153 140.029944 
L 274.125136 139.418382 
L 299.710194 138.577943 
L 333.901133 137.23018 
L 376.628659 135.293692 
L 419.617128 133.099097 
L 454.139977 131.145893 
L 488.730548 129.001718 
L 523.345468 126.66309 
L 566.528782 123.500586 
L 622.636364 119.148666 
L 622.636364 119.148666 
" clip-path="url(#p52b39249c9)" style="fill: none; stroke: #1f77b4; stroke-width: 1.5; stroke-linecap: square"/>
    <defs>
     <path id="m62051ee3a2" d="M 0 3 
C 0.795609 3 1.55874 2.683901 2.12132 2.12132 
C 2.683901 1.55874 3 0.795609 3 0 
C 3 -0.795609 2.683901 -1.55874 2.12132 -2.12132 
C 1.55874 -2.683901 0.795609 -3 0 -3 
C -0.795609 -3 -1.55874 -2.683901 -2.12132 -2.12132 
C -2.683901 -1.55874 -3 -0.795609 -3 0 
C -3 0.795609 -2.683901 1.55874 -2.12132 2.12132 
C -1.55874 2.683901 -0.795609 3 0 3 
z
" style="stroke: #1f77b4"/>
    </defs>
    <g clip-path="url(#p52b39249c9)">
     <use xlink:href="#m62051ee3a2" x="622.636364" y="117.870331" style="fill: #1f77b4; stroke: #1f77b4"/>
     <use xlink:href="#m62051ee3a2" x="619.496632" y="117.096863" style="fill: #1f77b4; stroke: #1f77b4"/>
     <use xlink:href="#m62051ee3a2" x="614.029164" y="115.783716" style="fill: #1f77b4; stroke: #1f77b4"/>
     <use xlink:href="#m62051ee3a2" x="607.660774" y="114.30587" style="fill: #1f77b4; stroke: #1f77b4"/>
     <use xlink:href="#m62051ee3a2" x="600.539283" y="112.715428" style="fill: #1f77b4; stroke: #1f77b4"/>
     <use xlink:href="#m62051ee3a2" x="592.894638" y="111.076602" style="fill: #1f77b4; stroke: #1f77b4"/>
     <use xlink:href="#m62051ee3a2" x="584.937563" y="109.440953" style="fill: #1f77b4; stroke: #1f77b4"/>
     <use xlink:href="#m62051ee3a2" x="576.810499" y="107.838949" style="fill: #1f77b4; stroke: #1f77b4"/>
     <use xlink:href="#m62051ee3a2" x="568.594408" y="106.284679" style="fill: #1f77b4; stroke: #1f77b4"/>
     <use xlink:href="#m62051ee3a2" x="560.331243" y="104.782791" style="fill: #1f77b4; stroke: #1f77b4"/>
     <use xlink:href="#m62051ee3a2" x="552.0418" y="103.333295" style="fill: #1f77b4; stroke: #1f77b4"/>
     <use xlink:href="#m62051ee3a2" x="543.736277" y="101.93418" style="fill: #1f77b4; stroke: #1f77b4"/>
     <use xlink:href="#m62051ee3a2" x="535.419999" y="100.582742" style="fill: #1f77b4; stroke: #1f77b4"/>
     <use xlink:href="#m62051ee3a2" x="527.095605" y="99.276089" style="fill: #1f77b4; stroke: #1f77b4"/>
     <use xlink:href="#m62051ee3a2" x="518.76482" y="98.011496" style="fill: #1f77b4; stroke: #1f77b4"/>
     <use xlink:href="#m62051ee3a2" x="510.428708" y="96.786467" style="fill: #1f77b4; stroke: #1f77b4"/>
     <use xlink:href="#m62051ee3a2" x="502.088131" y="95.598814" style="fill: #1f77b4; stroke: #1f77b4"/>
     <use xlink:href="#m62051ee3a2" x="493.743852" y="94.44667" style="fill: #1f77b4; stroke: #1f77b4"/>
     <use xlink:href="#m62051ee3a2" x="485.39653" y="93.328492" style="fill: #1f77b4; stroke: #1f77b4"/>
     <use xlink:href="#m62051ee3a2" x="477.046873" y="92.243074" style="fill: #1f77b4; stroke: #1f77b4"/>
     <use xlink:href="#m62051ee3a2" x="468.695543" y="91.189527" style="fill: #1f77b4; stroke: #1f77b4"/>
     <use xlink:href="#m62051ee3a2" x="460.343198" y="90.167283" style="fill: #1f77b4; stroke: #1f77b4"/>
     <use xlink:href="#m62051ee3a2" x="451.990549" y="89.176091" style="fill: #1f77b4; stroke: #1f77b4"/>
     <use xlink:href="#m62051ee3a2" x="443.638306" y="88.216003" style="fill: #1f77b4; stroke: #1f77b4"/>
     <use xlink:href="#m62051ee3a2" x="435.287127" y="87.287362" style="fill: #1f77b4; stroke: #1f77b4"/>
     <use xlink:href="#m62051ee3a2" x="426.937826" y="86.390813" style="fill: #1f77b4; stroke: #1f77b4"/>
     <use xlink:href="#m62051ee3a2" x="418.591061" y="85.527265" style="fill: #1f77b4; stroke: #1f77b4"/>
     <use xlink:href="#m62051ee3a2" x="410.247746" y="84.697918" style="fill: #1f77b4; stroke: #1f77b4"/>
     <use xlink:href="#m62051ee3a2" x="401.908641" y="83.904213" style="fill: #1f77b4; stroke: #1f77b4"/>
     <use xlink:href="#m62051ee3a2" x="393.574558" y="83.147842" style="fill: #1f77b4; stroke: #1f77b4"/>
     <use xlink:href="#m62051ee3a2" x="385.246461" y="82.430746" style="fill: #1f77b4; stroke: #1f77b4"/>
     <use xlink:href="#m62051ee3a2" x="376.925415" y="81.755096" style="fill: #1f77b4; stroke: #1f77b4"/>
     <use xlink:href="#m62051ee3a2" x="368.612435" y="81.123266" style="fill: #1f77b4; stroke: #1f77b4"/>
     <use xlink:href="#m62051ee3a2" x="360.308992" y="80.537857" style="fill: #1f77b4; stroke: #1f77b4"/>
     <use xlink:href="#m62051ee3a2" x="352.016759" y="80.00166" style="fill: #1f77b4; stroke: #1f77b4"/>
     <use xlink:href="#m62051ee3a2" x="343.738324" y="79.517672" style="fill: #1f77b4; stroke: #1f77b4"/>
     <use xlink:href="#m62051ee3a2" x="335.477847" y="79.089082" style="fill: #1f77b4; stroke: #1f77b4"/>
     <use xlink:href="#m62051ee3a2" x="327.242835" y="78.719277" style="fill: #1f77b4; stroke: #1f77b4"/>
     <use xlink:href="#m62051ee3a2" x="319.046883" y="78.411777" style="fill: #1f77b4; stroke: #1f77b4"/>
     <use xlink:href="#m62051ee3a2" x="310.911652" y="78.17001" style="fill: #1f77b4; stroke: #1f77b4"/>
     <use xlink:href="#m62051ee3a2" x="302.821366" y="77.996118" style="fill: #1f77b4; stroke: #1f77b4"/>
     <use xlink:href="#m62051ee3a2" x="294.763444" y="77.892865" style="fill: #1f77b4; stroke: #1f77b4"/>
     <use xlink:href="#m62051ee3a2" x="286.733575" y="77.86355" style="fill: #1f77b4; stroke: #1f77b4"/>
     <use xlink:href="#m62051ee3a2" x="278.731199" y="77.911713" style="fill: #1f77b4; stroke: #1f77b4"/>
     <use xlink:href="#m62051ee3a2" x="270.757688" y="78.041014" style="fill: #1f77b4; stroke: #1f77b4"/>
     <use xlink:href="#m62051ee3a2" x="262.815475" y="78.255169" style="fill: #1f77b4; stroke: #1f77b4"/>
     <use xlink:href="#m62051ee3a2" x="254.908011" y="78.557912" style="fill: #1f77b4; stroke: #1f77b4"/>
     <use xlink:href="#m62051ee3a2" x="247.039303" y="78.952977" style="fill: #1f77b4; stroke: #1f77b4"/>
     <use xlink:href="#m62051ee3a2" x="239.214271" y="79.444061" style="fill: #1f77b4; stroke: #1f77b4"/>
     <use xlink:href="#m62051ee3a2" x="231.43875" y="80.034797" style="fill: #1f77b4; stroke: #1f77b4"/>
     <use xlink:href="#m62051ee3a2" x="223.719891" y="80.728701" style="fill: #1f77b4; stroke: #1f77b4"/>
     <use xlink:href="#m62051ee3a2" x="216.066267" y="81.52912" style="fill: #1f77b4; stroke: #1f77b4"/>
     <use xlink:href="#m62051ee3a2" x="208.488989" y="82.439068" style="fill: #1f77b4; stroke: #1f77b4"/>
     <use xlink:href="#m62051ee3a2" x="201.002107" y="83.461061" style="fill: #1f77b4; stroke: #1f77b4"/>
     <use xlink:href="#m62051ee3a2" x="193.624391" y="84.596708" style="fill: #1f77b4; stroke: #1f77b4"/>
     <use xlink:href="#m62051ee3a2" x="186.381103" y="85.8461" style="fill: #1f77b4; stroke: #1f77b4"/>
     <use xlink:href="#m62051ee3a2" x="179.306687" y="87.206791" style="fill: #1f77b4; stroke: #1f77b4"/>
     <use xlink:href="#m62051ee3a2" x="172.448016" y="88.672213" style="fill: #1f77b4; stroke: #1f77b4"/>
     <use xlink:href="#m62051ee3a2" x="165.866631" y="90.229696" style="fill: #1f77b4; stroke: #1f77b4"/>
     <use xlink:href="#m62051ee3a2" x="159.638057" y="91.858547" style="fill: #1f77b4; stroke: #1f77b4"/>
     <use xlink:href="#m62051ee3a2" x="153.84475" y="93.529522" style="fill: #1f77b4; stroke: #1f77b4"/>
     <use xlink:href="#m62051ee3a2" x="148.561013" y="95.207383" style="fill: #1f77b4; stroke: #1f77b4"/>
     <use xlink:href="#m62051ee3a2" x="143.834649" y="96.856782" style="fill: #1f77b4; stroke: #1f77b4"/>
     <use xlink:href="#m62051ee3a2" x="139.675212" y="98.449094" style="fill: #1f77b4; stroke: #1f77b4"/>
     <use xlink:href="#m62051ee3a2" x="136.055475" y="99.966651" style="fill: #1f77b4; stroke: #1f77b4"/>
     <use xlink:href="#m62051ee3a2" x="132.923423" y="101.402893" style="fill: #1f77b4; stroke: #1f77b4"/>
     <use xlink:href="#m62051ee3a2" x="130.216656" y="102.759708" style="fill: #1f77b4; stroke: #1f77b4"/>
     <use xlink:href="#m62051ee3a2" x="127.873407" y="104.044041" style="fill: #1f77b4; stroke: #1f77b4"/>
     <use xlink:href="#m62051ee3a2" x="125.838491" y="105.26518" style="fill: #1f77b4; stroke: #1f77b4"/>
     <use xlink:href="#m62051ee3a2" x="124.065416" y="106.433063" style="fill: #1f77b4; stroke: #1f77b4"/>
     <use xlink:href="#m62051ee3a2" x="122.516404" y="107.55736" style="fill: #1f77b4; stroke: #1f77b4"/>
     <use xlink:href="#m62051ee3a2" x="121.161562" y="108.647024" style="fill: #1f77b4; stroke: #1f77b4"/>
     <use xlink:href="#m62051ee3a2" x="119.977783" y="109.710104" style="fill: #1f77b4; stroke: #1f77b4"/>
     <use xlink:href="#m62051ee3a2" x="118.94769" y="110.75366" style="fill: #1f77b4; stroke: #1f77b4"/>
     <use xlink:href="#m62051ee3a2" x="118.058763" y="111.783642" style="fill: #1f77b4; stroke: #1f77b4"/>
     <use xlink:href="#m62051ee3a2" x="117.302539" y="112.80472" style="fill: #1f77b4; stroke: #1f77b4"/>
     <use xlink:href="#m62051ee3a2" x="116.673903" y="113.819929" style="fill: #1f77b4; stroke: #1f77b4"/>
     <use xlink:href="#m62051ee3a2" x="116.170136" y="114.830415" style="fill: #1f77b4; stroke: #1f77b4"/>
     <use xlink:href="#m62051ee3a2" x="115.789918" y="115.834863" style="fill: #1f77b4; stroke: #1f77b4"/>
     <use xlink:href="#m62051ee3a2" x="115.531555" y="116.830929" style="fill: #1f77b4; stroke: #1f77b4"/>
     <use xlink:href="#m62051ee3a2" x="115.391697" y="117.823368" style="fill: #1f77b4; stroke: #1f77b4"/>
     <use xlink:href="#m62051ee3a2" x="115.363636" y="118.509499" style="fill: #1f77b4; stroke: #1f77b4"/>
     <use xlink:href="#m62051ee3a2" x="115.445042" y="119.518549" style="fill: #1f77b4; stroke: #1f77b4"/>
     <use xlink:href="#m62051ee3a2" x="115.649286" y="120.3979" style="fill: #1f77b4; stroke: #1f77b4"/>
     <use xlink:href="#m62051ee3a2" x="115.985438" y="121.29118" style="fill: #1f77b4; stroke: #1f77b4"/>
     <use xlink:href="#m62051ee3a2" x="116.4584" y="122.192036" style="fill: #1f77b4; stroke: #1f77b4"/>
     <use xlink:href="#m62051ee3a2" x="117.068464" y="123.091272" style="fill: #1f77b4; stroke: #1f77b4"/>
     <use xlink:href="#m62051ee3a2" x="117.814522" y="123.982994" style="fill: #1f77b4; stroke: #1f77b4"/>
     <use xlink:href="#m62051ee3a2" x="118.696173" y="124.864346" style="fill: #1f77b4; stroke: #1f77b4"/>
     <use xlink:href="#m62051ee3a2" x="119.715713" y="125.735205" style="fill: #1f77b4; stroke: #1f77b4"/>
     <use xlink:href="#m62051ee3a2" x="120.879278" y="126.597324" style="fill: #1f77b4; stroke: #1f77b4"/>
     <use xlink:href="#m62051ee3a2" x="122.197672" y="127.453638" style="fill: #1f77b4; stroke: #1f77b4"/>
     <use xlink:href="#m62051ee3a2" x="123.6871" y="128.307744" style="fill: #1f77b4; stroke: #1f77b4"/>
     <use xlink:href="#m62051ee3a2" x="125.370032" y="129.163528" style="fill: #1f77b4; stroke: #1f77b4"/>
     <use xlink:href="#m62051ee3a2" x="127.276273" y="130.024841" style="fill: #1f77b4; stroke: #1f77b4"/>
     <use xlink:href="#m62051ee3a2" x="129.444288" y="130.89517" style="fill: #1f77b4; stroke: #1f77b4"/>
     <use xlink:href="#m62051ee3a2" x="131.922462" y="131.77712" style="fill: #1f77b4; stroke: #1f77b4"/>
     <use xlink:href="#m62051ee3a2" x="134.769846" y="132.671642" style="fill: #1f77b4; stroke: #1f77b4"/>
     <use xlink:href="#m62051ee3a2" x="138.055348" y="133.57689" style="fill: #1f77b4; stroke: #1f77b4"/>
     <use xlink:href="#m62051ee3a2" x="141.853037" y="134.486588" style="fill: #1f77b4; stroke: #1f77b4"/>
     <use xlink:href="#m62051ee3a2" x="146.23074" y="135.388224" style="fill: #1f77b4; stroke: #1f77b4"/>
     <use xlink:href="#m62051ee3a2" x="151.232889" y="136.262439" style="fill: #1f77b4; stroke: #1f77b4"/>
     <use xlink:href="#m62051ee3a2" x="156.862868" y="137.084927" style="fill: #1f77b4; stroke: #1f77b4"/>
     <use xlink:href="#m62051ee3a2" x="163.075139" y="137.831109" style="fill: #1f77b4; stroke: #1f77b4"/>
     <use xlink:href="#m62051ee3a2" x="169.785732" y="138.481831" style="fill: #1f77b4; stroke: #1f77b4"/>
     <use xlink:href="#m62051ee3a2" x="176.895505" y="139.026837" style="fill: #1f77b4; stroke: #1f77b4"/>
     <use xlink:href="#m62051ee3a2" x="184.311875" y="139.464637" style="fill: #1f77b4; stroke: #1f77b4"/>
     <use xlink:href="#m62051ee3a2" x="191.959817" y="139.800035" style="fill: #1f77b4; stroke: #1f77b4"/>
     <use xlink:href="#m62051ee3a2" x="199.783733" y="140.041317" style="fill: #1f77b4; stroke: #1f77b4"/>
     <use xlink:href="#m62051ee3a2" x="207.743649" y="140.198106" style="fill: #1f77b4; stroke: #1f77b4"/>
     <use xlink:href="#m62051ee3a2" x="215.811463" y="140.280106" style="fill: #1f77b4; stroke: #1f77b4"/>
     <use xlink:href="#m62051ee3a2" x="223.967086" y="140.29645" style="fill: #1f77b4; stroke: #1f77b4"/>
     <use xlink:href="#m62051ee3a2" x="232.195808" y="140.255432" style="fill: #1f77b4; stroke: #1f77b4"/>
     <use xlink:href="#m62051ee3a2" x="240.486671" y="140.164434" style="fill: #1f77b4; stroke: #1f77b4"/>
     <use xlink:href="#m62051ee3a2" x="248.831153" y="140.029944" style="fill: #1f77b4; stroke: #1f77b4"/>
     <use xlink:href="#m62051ee3a2" x="257.222558" y="139.857619" style="fill: #1f77b4; stroke: #1f77b4"/>
     <use xlink:href="#m62051ee3a2" x="265.655458" y="139.652357" style="fill: #1f77b4; stroke: #1f77b4"/>
     <use xlink:href="#m62051ee3a2" x="274.125136" y="139.418382" style="fill: #1f77b4; stroke: #1f77b4"/>
     <use xlink:href="#m62051ee3a2" x="282.627279" y="139.159319" style="fill: #1f77b4; stroke: #1f77b4"/>
     <use xlink:href="#m62051ee3a2" x="291.157475" y="138.878276" style="fill: #1f77b4; stroke: #1f77b4"/>
     <use xlink:href="#m62051ee3a2" x="299.710194" y="138.577943" style="fill: #1f77b4; stroke: #1f77b4"/>
     <use xlink:href="#m62051ee3a2" x="308.276812" y="138.260729" style="fill: #1f77b4; stroke: #1f77b4"/>
     <use xlink:href="#m62051ee3a2" x="316.841807" y="137.928982" style="fill: #1f77b4; stroke: #1f77b4"/>
     <use xlink:href="#m62051ee3a2" x="325.378648" y="137.585244" style="fill: #1f77b4; stroke: #1f77b4"/>
     <use xlink:href="#m62051ee3a2" x="333.901133" y="137.23018" style="fill: #1f77b4; stroke: #1f77b4"/>
     <use xlink:href="#m62051ee3a2" x="342.42585" y="136.863981" style="fill: #1f77b4; stroke: #1f77b4"/>
     <use xlink:href="#m62051ee3a2" x="350.959394" y="136.486977" style="fill: #1f77b4; stroke: #1f77b4"/>
     <use xlink:href="#m62051ee3a2" x="359.504148" y="136.099468" style="fill: #1f77b4; stroke: #1f77b4"/>
     <use xlink:href="#m62051ee3a2" x="368.060621" y="135.70167" style="fill: #1f77b4; stroke: #1f77b4"/>
     <use xlink:href="#m62051ee3a2" x="376.628659" y="135.293692" style="fill: #1f77b4; stroke: #1f77b4"/>
     <use xlink:href="#m62051ee3a2" x="385.207553" y="134.875555" style="fill: #1f77b4; stroke: #1f77b4"/>
     <use xlink:href="#m62051ee3a2" x="393.796644" y="134.447189" style="fill: #1f77b4; stroke: #1f77b4"/>
     <use xlink:href="#m62051ee3a2" x="402.395169" y="134.008456" style="fill: #1f77b4; stroke: #1f77b4"/>
     <use xlink:href="#m62051ee3a2" x="411.002217" y="133.55917" style="fill: #1f77b4; stroke: #1f77b4"/>
     <use xlink:href="#m62051ee3a2" x="419.617128" y="133.099097" style="fill: #1f77b4; stroke: #1f77b4"/>
     <use xlink:href="#m62051ee3a2" x="428.23909" y="132.627988" style="fill: #1f77b4; stroke: #1f77b4"/>
     <use xlink:href="#m62051ee3a2" x="436.867342" y="132.145585" style="fill: #1f77b4; stroke: #1f77b4"/>
     <use xlink:href="#m62051ee3a2" x="445.501225" y="131.651631" style="fill: #1f77b4; stroke: #1f77b4"/>
     <use xlink:href="#m62051ee3a2" x="454.139977" y="131.145893" style="fill: #1f77b4; stroke: #1f77b4"/>
     <use xlink:href="#m62051ee3a2" x="462.782991" y="130.628163" style="fill: #1f77b4; stroke: #1f77b4"/>
     <use xlink:href="#m62051ee3a2" x="471.429505" y="130.098285" style="fill: #1f77b4; stroke: #1f77b4"/>
     <use xlink:href="#m62051ee3a2" x="480.078911" y="129.556151" style="fill: #1f77b4; stroke: #1f77b4"/>
     <use xlink:href="#m62051ee3a2" x="488.730548" y="129.001718" style="fill: #1f77b4; stroke: #1f77b4"/>
     <use xlink:href="#m62051ee3a2" x="497.383708" y="128.435026" style="fill: #1f77b4; stroke: #1f77b4"/>
     <use xlink:href="#m62051ee3a2" x="506.03778" y="127.856191" style="fill: #1f77b4; stroke: #1f77b4"/>
     <use xlink:href="#m62051ee3a2" x="514.691954" y="127.265438" style="fill: #1f77b4; stroke: #1f77b4"/>
     <use xlink:href="#m62051ee3a2" x="523.345468" y="126.66309" style="fill: #1f77b4; stroke: #1f77b4"/>
     <use xlink:href="#m62051ee3a2" x="531.997258" y="126.049605" style="fill: #1f77b4; stroke: #1f77b4"/>
     <use xlink:href="#m62051ee3a2" x="540.6457" y="125.425601" style="fill: #1f77b4; stroke: #1f77b4"/>
     <use xlink:href="#m62051ee3a2" x="549.288105" y="124.791904" style="fill: #1f77b4; stroke: #1f77b4"/>
     <use xlink:href="#m62051ee3a2" x="557.919299" y="124.149663" style="fill: #1f77b4; stroke: #1f77b4"/>
     <use xlink:href="#m62051ee3a2" x="566.528782" y="123.500586" style="fill: #1f77b4; stroke: #1f77b4"/>
     <use xlink:href="#m62051ee3a2" x="575.094791" y="122.847409" style="fill: #1f77b4; stroke: #1f77b4"/>
     <use xlink:href="#m62051ee3a2" x="583.572585" y="122.194832" style="fill: #1f77b4; stroke: #1f77b4"/>
     <use xlink:href="#m62051ee3a2" x="591.874101" y="121.551123" style="fill: #1f77b4; stroke: #1f77b4"/>
     <use xlink:href="#m62051ee3a2" x="599.841779" y="120.930149" style="fill: #1f77b4; stroke: #1f77b4"/>
     <use xlink:href="#m62051ee3a2" x="607.241764" y="120.35179" style="fill: #1f77b4; stroke: #1f77b4"/>
     <use xlink:href="#m62051ee3a2" x="613.822449" y="119.837076" style="fill: #1f77b4; stroke: #1f77b4"/>
     <use xlink:href="#m62051ee3a2" x="619.432715" y="119.398642" style="fill: #1f77b4; stroke: #1f77b4"/>
     <use xlink:href="#m62051ee3a2" x="622.636364" y="119.148666" style="fill: #1f77b4; stroke: #1f77b4"/>
    </g>
   </g>
  </g>
 </g>
 <defs>
  <clipPath id="p52b39249c9">
   <rect x="90" y="74.741905" width="558" height="68.67619"/>
  </clipPath>
 </defs>
</svg>
