<?xml version="1.0" encoding="utf-8" standalone="no"?>
<!DOCTYPE svg PUBLIC "-//W3C//DTD SVG 1.1//EN"
  "http://www.w3.org/Graphics/SVG/1.1/DTD/svg11.dtd">
<svg xmlns:xlink="http://www.w3.org/1999/xlink" width="720pt" height="216pt" viewBox="0 0 720 216" xmlns="http://www.w3.org/2000/svg" version="1.1">
 <metadata>
  <rdf:RDF xmlns:dc="http://purl.org/dc/elements/1.1/" xmlns:cc="http://creativecommons.org/ns#" xmlns:rdf="http://www.w3.org/1999/02/22-rdf-syntax-ns#">
   <cc:Work>
    <dc:type rdf:resource="http://purl.org/dc/dcmitype/StillImage"/>
    <dc:date>2022-08-10T16:15:31.009020</dc:date>
    <dc:format>image/svg+xml</dc:format>
    <dc:creator>
     <cc:Agent>
      <dc:title>Matplotlib v3.5.2, https://matplotlib.org/</dc:title>
     </cc:Agent>
    </dc:creator>
   </cc:Work>
  </rdf:RDF>
 </metadata>
 <defs>
  <style type="text/css">*{stroke-linejoin: round; stroke-linecap: butt}</style>
 </defs>
 <g id="figure_1">
  <g id="patch_1">
   <path d="M 0 216 
L 720 216 
L 720 0 
L 0 0 
z
" style="fill: #ffffff"/>
  </g>
  <g id="axes_1">
   <g id="patch_2">
    <path d="M 90 159.014644 
L 648 159.014644 
L 648 59.145356 
L 90 59.145356 
z
" style="fill: #ffffff"/>
   </g>
   <g id="matplotlib.axis_1">
    <g id="xtick_1">
     <g id="line2d_1">
      <defs>
       <path id="m1c7fbff376" d="M 0 0 
L 0 3.5 
" style="stroke: #000000; stroke-width: 0.8"/>
      </defs>
      <g>
       <use xlink:href="#m1c7fbff376" x="115.360682" y="159.014644" style="stroke: #000000; stroke-width: 0.8"/>
      </g>
     </g>
     <g id="text_1">
      <!-- 0.0 -->
      <g transform="translate(107.409119 173.613082)scale(0.1 -0.1)">
       <defs>
        <path id="DejaVuSans-30" d="M 2034 4250 
Q 1547 4250 1301 3770 
Q 1056 3291 1056 2328 
Q 1056 1369 1301 889 
Q 1547 409 2034 409 
Q 2525 409 2770 889 
Q 3016 1369 3016 2328 
Q 3016 3291 2770 3770 
Q 2525 4250 2034 4250 
z
M 2034 4750 
Q 2819 4750 3233 4129 
Q 3647 3509 3647 2328 
Q 3647 1150 3233 529 
Q 2819 -91 2034 -91 
Q 1250 -91 836 529 
Q 422 1150 422 2328 
Q 422 3509 836 4129 
Q 1250 4750 2034 4750 
z
" transform="scale(0.015625)"/>
        <path id="DejaVuSans-2e" d="M 684 794 
L 1344 794 
L 1344 0 
L 684 0 
L 684 794 
z
" transform="scale(0.015625)"/>
       </defs>
       <use xlink:href="#DejaVuSans-30"/>
       <use xlink:href="#DejaVuSans-2e" x="63.623047"/>
       <use xlink:href="#DejaVuSans-30" x="95.410156"/>
      </g>
     </g>
    </g>
    <g id="xtick_2">
     <g id="line2d_2">
      <g>
       <use xlink:href="#m1c7fbff376" x="216.815818" y="159.014644" style="stroke: #000000; stroke-width: 0.8"/>
      </g>
     </g>
     <g id="text_2">
      <!-- 0.2 -->
      <g transform="translate(208.864256 173.613082)scale(0.1 -0.1)">
       <defs>
        <path id="DejaVuSans-32" d="M 1228 531 
L 3431 531 
L 3431 0 
L 469 0 
L 469 531 
Q 828 903 1448 1529 
Q 2069 2156 2228 2338 
Q 2531 2678 2651 2914 
Q 2772 3150 2772 3378 
Q 2772 3750 2511 3984 
Q 2250 4219 1831 4219 
Q 1534 4219 1204 4116 
Q 875 4013 500 3803 
L 500 4441 
Q 881 4594 1212 4672 
Q 1544 4750 1819 4750 
Q 2544 4750 2975 4387 
Q 3406 4025 3406 3419 
Q 3406 3131 3298 2873 
Q 3191 2616 2906 2266 
Q 2828 2175 2409 1742 
Q 1991 1309 1228 531 
z
" transform="scale(0.015625)"/>
       </defs>
       <use xlink:href="#DejaVuSans-30"/>
       <use xlink:href="#DejaVuSans-2e" x="63.623047"/>
       <use xlink:href="#DejaVuSans-32" x="95.410156"/>
      </g>
     </g>
    </g>
    <g id="xtick_3">
     <g id="line2d_3">
      <g>
       <use xlink:href="#m1c7fbff376" x="318.270954" y="159.014644" style="stroke: #000000; stroke-width: 0.8"/>
      </g>
     </g>
     <g id="text_3">
      <!-- 0.4 -->
      <g transform="translate(310.319392 173.613082)scale(0.1 -0.1)">
       <defs>
        <path id="DejaVuSans-34" d="M 2419 4116 
L 825 1625 
L 2419 1625 
L 2419 4116 
z
M 2253 4666 
L 3047 4666 
L 3047 1625 
L 3713 1625 
L 3713 1100 
L 3047 1100 
L 3047 0 
L 2419 0 
L 2419 1100 
L 313 1100 
L 313 1709 
L 2253 4666 
z
" transform="scale(0.015625)"/>
       </defs>
       <use xlink:href="#DejaVuSans-30"/>
       <use xlink:href="#DejaVuSans-2e" x="63.623047"/>
       <use xlink:href="#DejaVuSans-34" x="95.410156"/>
      </g>
     </g>
    </g>
    <g id="xtick_4">
     <g id="line2d_4">
      <g>
       <use xlink:href="#m1c7fbff376" x="419.726091" y="159.014644" style="stroke: #000000; stroke-width: 0.8"/>
      </g>
     </g>
     <g id="text_4">
      <!-- 0.6 -->
      <g transform="translate(411.774528 173.613082)scale(0.1 -0.1)">
       <defs>
        <path id="DejaVuSans-36" d="M 2113 2584 
Q 1688 2584 1439 2293 
Q 1191 2003 1191 1497 
Q 1191 994 1439 701 
Q 1688 409 2113 409 
Q 2538 409 2786 701 
Q 3034 994 3034 1497 
Q 3034 2003 2786 2293 
Q 2538 2584 2113 2584 
z
M 3366 4563 
L 3366 3988 
Q 3128 4100 2886 4159 
Q 2644 4219 2406 4219 
Q 1781 4219 1451 3797 
Q 1122 3375 1075 2522 
Q 1259 2794 1537 2939 
Q 1816 3084 2150 3084 
Q 2853 3084 3261 2657 
Q 3669 2231 3669 1497 
Q 3669 778 3244 343 
Q 2819 -91 2113 -91 
Q 1303 -91 875 529 
Q 447 1150 447 2328 
Q 447 3434 972 4092 
Q 1497 4750 2381 4750 
Q 2619 4750 2861 4703 
Q 3103 4656 3366 4563 
z
" transform="scale(0.015625)"/>
       </defs>
       <use xlink:href="#DejaVuSans-30"/>
       <use xlink:href="#DejaVuSans-2e" x="63.623047"/>
       <use xlink:href="#DejaVuSans-36" x="95.410156"/>
      </g>
     </g>
    </g>
    <g id="xtick_5">
     <g id="line2d_5">
      <g>
       <use xlink:href="#m1c7fbff376" x="521.181227" y="159.014644" style="stroke: #000000; stroke-width: 0.8"/>
      </g>
     </g>
     <g id="text_5">
      <!-- 0.8 -->
      <g transform="translate(513.229665 173.613082)scale(0.1 -0.1)">
       <defs>
        <path id="DejaVuSans-38" d="M 2034 2216 
Q 1584 2216 1326 1975 
Q 1069 1734 1069 1313 
Q 1069 891 1326 650 
Q 1584 409 2034 409 
Q 2484 409 2743 651 
Q 3003 894 3003 1313 
Q 3003 1734 2745 1975 
Q 2488 2216 2034 2216 
z
M 1403 2484 
Q 997 2584 770 2862 
Q 544 3141 544 3541 
Q 544 4100 942 4425 
Q 1341 4750 2034 4750 
Q 2731 4750 3128 4425 
Q 3525 4100 3525 3541 
Q 3525 3141 3298 2862 
Q 3072 2584 2669 2484 
Q 3125 2378 3379 2068 
Q 3634 1759 3634 1313 
Q 3634 634 3220 271 
Q 2806 -91 2034 -91 
Q 1263 -91 848 271 
Q 434 634 434 1313 
Q 434 1759 690 2068 
Q 947 2378 1403 2484 
z
M 1172 3481 
Q 1172 3119 1398 2916 
Q 1625 2713 2034 2713 
Q 2441 2713 2670 2916 
Q 2900 3119 2900 3481 
Q 2900 3844 2670 4047 
Q 2441 4250 2034 4250 
Q 1625 4250 1398 4047 
Q 1172 3844 1172 3481 
z
" transform="scale(0.015625)"/>
       </defs>
       <use xlink:href="#DejaVuSans-30"/>
       <use xlink:href="#DejaVuSans-2e" x="63.623047"/>
       <use xlink:href="#DejaVuSans-38" x="95.410156"/>
      </g>
     </g>
    </g>
    <g id="xtick_6">
     <g id="line2d_6">
      <g>
       <use xlink:href="#m1c7fbff376" x="622.636364" y="159.014644" style="stroke: #000000; stroke-width: 0.8"/>
      </g>
     </g>
     <g id="text_6">
      <!-- 1.0 -->
      <g transform="translate(614.684801 173.613082)scale(0.1 -0.1)">
       <defs>
        <path id="DejaVuSans-31" d="M 794 531 
L 1825 531 
L 1825 4091 
L 703 3866 
L 703 4441 
L 1819 4666 
L 2450 4666 
L 2450 531 
L 3481 531 
L 3481 0 
L 794 0 
L 794 531 
z
" transform="scale(0.015625)"/>
       </defs>
       <use xlink:href="#DejaVuSans-31"/>
       <use xlink:href="#DejaVuSans-2e" x="63.623047"/>
       <use xlink:href="#DejaVuSans-30" x="95.410156"/>
      </g>
     </g>
    </g>
   </g>
   <g id="matplotlib.axis_2"/>
   <g id="line2d_7">
    <path d="M 622.636364 143.0475 
L 619.496632 141.213601 
L 614.029164 138.23116 
L 607.660774 135.072422 
L 600.539283 131.906234 
L 592.894638 128.893252 
L 584.937563 126.131802 
L 576.810499 123.654574 
L 568.594408 121.45231 
L 560.331243 119.49557 
L 552.0418 117.74743 
L 543.736277 116.169628 
L 527.095605 113.380006 
L 502.088131 109.63908 
L 477.046873 105.842661 
L 460.343198 103.056763 
L 443.638306 99.978688 
L 426.937826 96.582546 
L 410.247746 92.883481 
L 393.574558 88.934344 
L 360.308992 80.663157 
L 343.738324 76.600711 
L 327.242835 72.80048 
L 319.046883 71.056857 
L 310.911652 69.45112 
L 302.821366 68.000694 
L 294.763444 66.724394 
L 286.733575 65.642932 
L 278.731199 64.777546 
L 270.757688 64.149296 
L 262.815475 63.778598 
L 254.908011 63.684869 
L 247.039303 63.88617 
L 239.214271 64.398872 
L 231.43875 65.237282 
L 223.719891 66.413201 
L 216.066267 67.935453 
L 208.488989 69.80914 
L 201.002107 72.034847 
L 193.624391 74.607273 
L 186.381103 77.513411 
L 179.306687 80.729877 
L 172.448016 84.219262 
L 165.866631 87.92626 
L 159.638057 91.775179 
L 153.84475 95.672202 
L 148.561013 99.515745 
L 143.834649 103.213592 
L 139.675212 106.699232 
L 136.055475 109.93905 
L 132.923423 112.928704 
L 130.216656 115.683688 
L 125.838491 120.595602 
L 122.516404 124.898792 
L 119.977783 128.789762 
L 118.058763 132.418888 
L 116.673903 135.891591 
L 116.170136 137.588973 
L 115.789918 139.263515 
L 115.531555 140.914915 
L 115.363636 143.686667 
L 115.445042 144.328658 
L 115.649286 144.886041 
L 115.985438 145.44826 
L 117.068464 146.560801 
L 118.696173 147.615489 
L 120.879278 148.588047 
L 123.6871 149.469595 
L 127.276273 150.248482 
L 131.922462 150.894274 
L 138.055348 151.338309 
L 141.853037 151.447279 
L 146.23074 151.453203 
L 151.232889 151.333825 
L 156.862868 151.07146 
L 163.075139 150.658656 
L 176.895505 149.415885 
L 191.959817 147.761297 
L 232.195808 143.099662 
L 248.831153 141.422323 
L 265.655458 140.010038 
L 282.627279 138.931419 
L 299.710194 138.233248 
L 316.841807 137.942054 
L 333.901133 138.061261 
L 350.959394 138.576262 
L 368.060621 139.463747 
L 385.207553 140.687606 
L 402.395169 142.198221 
L 419.617128 143.932782 
L 454.139977 147.758966 
L 480.078911 150.564815 
L 497.383708 152.195401 
L 514.691954 153.485378 
L 523.345468 153.959427 
L 531.997258 154.29517 
L 540.6457 154.473581 
L 549.288105 154.475131 
L 557.919299 154.279995 
L 566.528782 153.86863 
L 575.094791 153.223206 
L 583.572585 152.331052 
L 591.874101 151.192135 
L 599.841779 149.832441 
L 607.241764 148.31881 
L 613.822449 146.75682 
L 622.636364 144.325835 
L 622.636364 144.325835 
" clip-path="url(#p062da1e590)" style="fill: none; stroke: #1f77b4; stroke-width: 1.5; stroke-linecap: square"/>
    <defs>
     <path id="m7f0f8b68e8" d="M 0 3 
C 0.795609 3 1.55874 2.683901 2.12132 2.12132 
C 2.683901 1.55874 3 0.795609 3 0 
C 3 -0.795609 2.683901 -1.55874 2.12132 -2.12132 
C 1.55874 -2.683901 0.795609 -3 0 -3 
C -0.795609 -3 -1.55874 -2.683901 -2.12132 -2.12132 
C -2.683901 -1.55874 -3 -0.795609 -3 0 
C -3 0.795609 -2.683901 1.55874 -2.12132 2.12132 
C -1.55874 2.683901 -0.795609 3 0 3 
z
" style="stroke: #1f77b4"/>
    </defs>
    <g clip-path="url(#p062da1e590)">
     <use xlink:href="#m7f0f8b68e8" x="622.636364" y="143.0475" style="fill: #1f77b4; stroke: #1f77b4"/>
     <use xlink:href="#m7f0f8b68e8" x="619.496632" y="141.213601" style="fill: #1f77b4; stroke: #1f77b4"/>
     <use xlink:href="#m7f0f8b68e8" x="614.029164" y="138.23116" style="fill: #1f77b4; stroke: #1f77b4"/>
     <use xlink:href="#m7f0f8b68e8" x="607.660774" y="135.072422" style="fill: #1f77b4; stroke: #1f77b4"/>
     <use xlink:href="#m7f0f8b68e8" x="600.539283" y="131.906234" style="fill: #1f77b4; stroke: #1f77b4"/>
     <use xlink:href="#m7f0f8b68e8" x="592.894638" y="128.893252" style="fill: #1f77b4; stroke: #1f77b4"/>
     <use xlink:href="#m7f0f8b68e8" x="584.937563" y="126.131802" style="fill: #1f77b4; stroke: #1f77b4"/>
     <use xlink:href="#m7f0f8b68e8" x="576.810499" y="123.654574" style="fill: #1f77b4; stroke: #1f77b4"/>
     <use xlink:href="#m7f0f8b68e8" x="568.594408" y="121.45231" style="fill: #1f77b4; stroke: #1f77b4"/>
     <use xlink:href="#m7f0f8b68e8" x="560.331243" y="119.49557" style="fill: #1f77b4; stroke: #1f77b4"/>
     <use xlink:href="#m7f0f8b68e8" x="552.0418" y="117.74743" style="fill: #1f77b4; stroke: #1f77b4"/>
     <use xlink:href="#m7f0f8b68e8" x="543.736277" y="116.169628" style="fill: #1f77b4; stroke: #1f77b4"/>
     <use xlink:href="#m7f0f8b68e8" x="535.419999" y="114.725299" style="fill: #1f77b4; stroke: #1f77b4"/>
     <use xlink:href="#m7f0f8b68e8" x="527.095605" y="113.380006" style="fill: #1f77b4; stroke: #1f77b4"/>
     <use xlink:href="#m7f0f8b68e8" x="518.76482" y="112.102281" style="fill: #1f77b4; stroke: #1f77b4"/>
     <use xlink:href="#m7f0f8b68e8" x="510.428708" y="110.863725" style="fill: #1f77b4; stroke: #1f77b4"/>
     <use xlink:href="#m7f0f8b68e8" x="502.088131" y="109.63908" style="fill: #1f77b4; stroke: #1f77b4"/>
     <use xlink:href="#m7f0f8b68e8" x="493.743852" y="108.406214" style="fill: #1f77b4; stroke: #1f77b4"/>
     <use xlink:href="#m7f0f8b68e8" x="485.39653" y="107.146076" style="fill: #1f77b4; stroke: #1f77b4"/>
     <use xlink:href="#m7f0f8b68e8" x="477.046873" y="105.842661" style="fill: #1f77b4; stroke: #1f77b4"/>
     <use xlink:href="#m7f0f8b68e8" x="468.695543" y="104.482933" style="fill: #1f77b4; stroke: #1f77b4"/>
     <use xlink:href="#m7f0f8b68e8" x="460.343198" y="103.056763" style="fill: #1f77b4; stroke: #1f77b4"/>
     <use xlink:href="#m7f0f8b68e8" x="451.990549" y="101.556862" style="fill: #1f77b4; stroke: #1f77b4"/>
     <use xlink:href="#m7f0f8b68e8" x="443.638306" y="99.978688" style="fill: #1f77b4; stroke: #1f77b4"/>
     <use xlink:href="#m7f0f8b68e8" x="435.287127" y="98.320349" style="fill: #1f77b4; stroke: #1f77b4"/>
     <use xlink:href="#m7f0f8b68e8" x="426.937826" y="96.582546" style="fill: #1f77b4; stroke: #1f77b4"/>
     <use xlink:href="#m7f0f8b68e8" x="418.591061" y="94.768411" style="fill: #1f77b4; stroke: #1f77b4"/>
     <use xlink:href="#m7f0f8b68e8" x="410.247746" y="92.883481" style="fill: #1f77b4; stroke: #1f77b4"/>
     <use xlink:href="#m7f0f8b68e8" x="401.908641" y="90.935502" style="fill: #1f77b4; stroke: #1f77b4"/>
     <use xlink:href="#m7f0f8b68e8" x="393.574558" y="88.934344" style="fill: #1f77b4; stroke: #1f77b4"/>
     <use xlink:href="#m7f0f8b68e8" x="385.246461" y="86.891906" style="fill: #1f77b4; stroke: #1f77b4"/>
     <use xlink:href="#m7f0f8b68e8" x="376.925415" y="84.821964" style="fill: #1f77b4; stroke: #1f77b4"/>
     <use xlink:href="#m7f0f8b68e8" x="368.612435" y="82.739997" style="fill: #1f77b4; stroke: #1f77b4"/>
     <use xlink:href="#m7f0f8b68e8" x="360.308992" y="80.663157" style="fill: #1f77b4; stroke: #1f77b4"/>
     <use xlink:href="#m7f0f8b68e8" x="352.016759" y="78.610047" style="fill: #1f77b4; stroke: #1f77b4"/>
     <use xlink:href="#m7f0f8b68e8" x="343.738324" y="76.600711" style="fill: #1f77b4; stroke: #1f77b4"/>
     <use xlink:href="#m7f0f8b68e8" x="335.477847" y="74.656564" style="fill: #1f77b4; stroke: #1f77b4"/>
     <use xlink:href="#m7f0f8b68e8" x="327.242835" y="72.80048" style="fill: #1f77b4; stroke: #1f77b4"/>
     <use xlink:href="#m7f0f8b68e8" x="319.046883" y="71.056857" style="fill: #1f77b4; stroke: #1f77b4"/>
     <use xlink:href="#m7f0f8b68e8" x="310.911652" y="69.45112" style="fill: #1f77b4; stroke: #1f77b4"/>
     <use xlink:href="#m7f0f8b68e8" x="302.821366" y="68.000694" style="fill: #1f77b4; stroke: #1f77b4"/>
     <use xlink:href="#m7f0f8b68e8" x="294.763444" y="66.724394" style="fill: #1f77b4; stroke: #1f77b4"/>
     <use xlink:href="#m7f0f8b68e8" x="286.733575" y="65.642932" style="fill: #1f77b4; stroke: #1f77b4"/>
     <use xlink:href="#m7f0f8b68e8" x="278.731199" y="64.777546" style="fill: #1f77b4; stroke: #1f77b4"/>
     <use xlink:href="#m7f0f8b68e8" x="270.757688" y="64.149296" style="fill: #1f77b4; stroke: #1f77b4"/>
     <use xlink:href="#m7f0f8b68e8" x="262.815475" y="63.778598" style="fill: #1f77b4; stroke: #1f77b4"/>
     <use xlink:href="#m7f0f8b68e8" x="254.908011" y="63.684869" style="fill: #1f77b4; stroke: #1f77b4"/>
     <use xlink:href="#m7f0f8b68e8" x="247.039303" y="63.88617" style="fill: #1f77b4; stroke: #1f77b4"/>
     <use xlink:href="#m7f0f8b68e8" x="239.214271" y="64.398872" style="fill: #1f77b4; stroke: #1f77b4"/>
     <use xlink:href="#m7f0f8b68e8" x="231.43875" y="65.237282" style="fill: #1f77b4; stroke: #1f77b4"/>
     <use xlink:href="#m7f0f8b68e8" x="223.719891" y="66.413201" style="fill: #1f77b4; stroke: #1f77b4"/>
     <use xlink:href="#m7f0f8b68e8" x="216.066267" y="67.935453" style="fill: #1f77b4; stroke: #1f77b4"/>
     <use xlink:href="#m7f0f8b68e8" x="208.488989" y="69.80914" style="fill: #1f77b4; stroke: #1f77b4"/>
     <use xlink:href="#m7f0f8b68e8" x="201.002107" y="72.034847" style="fill: #1f77b4; stroke: #1f77b4"/>
     <use xlink:href="#m7f0f8b68e8" x="193.624391" y="74.607273" style="fill: #1f77b4; stroke: #1f77b4"/>
     <use xlink:href="#m7f0f8b68e8" x="186.381103" y="77.513411" style="fill: #1f77b4; stroke: #1f77b4"/>
     <use xlink:href="#m7f0f8b68e8" x="179.306687" y="80.729877" style="fill: #1f77b4; stroke: #1f77b4"/>
     <use xlink:href="#m7f0f8b68e8" x="172.448016" y="84.219262" style="fill: #1f77b4; stroke: #1f77b4"/>
     <use xlink:href="#m7f0f8b68e8" x="165.866631" y="87.92626" style="fill: #1f77b4; stroke: #1f77b4"/>
     <use xlink:href="#m7f0f8b68e8" x="159.638057" y="91.775179" style="fill: #1f77b4; stroke: #1f77b4"/>
     <use xlink:href="#m7f0f8b68e8" x="153.84475" y="95.672202" style="fill: #1f77b4; stroke: #1f77b4"/>
     <use xlink:href="#m7f0f8b68e8" x="148.561013" y="99.515745" style="fill: #1f77b4; stroke: #1f77b4"/>
     <use xlink:href="#m7f0f8b68e8" x="143.834649" y="103.213592" style="fill: #1f77b4; stroke: #1f77b4"/>
     <use xlink:href="#m7f0f8b68e8" x="139.675212" y="106.699232" style="fill: #1f77b4; stroke: #1f77b4"/>
     <use xlink:href="#m7f0f8b68e8" x="136.055475" y="109.93905" style="fill: #1f77b4; stroke: #1f77b4"/>
     <use xlink:href="#m7f0f8b68e8" x="132.923423" y="112.928704" style="fill: #1f77b4; stroke: #1f77b4"/>
     <use xlink:href="#m7f0f8b68e8" x="130.216656" y="115.683688" style="fill: #1f77b4; stroke: #1f77b4"/>
     <use xlink:href="#m7f0f8b68e8" x="127.873407" y="118.229663" style="fill: #1f77b4; stroke: #1f77b4"/>
     <use xlink:href="#m7f0f8b68e8" x="125.838491" y="120.595602" style="fill: #1f77b4; stroke: #1f77b4"/>
     <use xlink:href="#m7f0f8b68e8" x="124.065416" y="122.809938" style="fill: #1f77b4; stroke: #1f77b4"/>
     <use xlink:href="#m7f0f8b68e8" x="122.516404" y="124.898792" style="fill: #1f77b4; stroke: #1f77b4"/>
     <use xlink:href="#m7f0f8b68e8" x="121.161562" y="126.88534" style="fill: #1f77b4; stroke: #1f77b4"/>
     <use xlink:href="#m7f0f8b68e8" x="119.977783" y="128.789762" style="fill: #1f77b4; stroke: #1f77b4"/>
     <use xlink:href="#m7f0f8b68e8" x="118.94769" y="130.62941" style="fill: #1f77b4; stroke: #1f77b4"/>
     <use xlink:href="#m7f0f8b68e8" x="118.058763" y="132.418888" style="fill: #1f77b4; stroke: #1f77b4"/>
     <use xlink:href="#m7f0f8b68e8" x="117.302539" y="134.170037" style="fill: #1f77b4; stroke: #1f77b4"/>
     <use xlink:href="#m7f0f8b68e8" x="116.673903" y="135.891591" style="fill: #1f77b4; stroke: #1f77b4"/>
     <use xlink:href="#m7f0f8b68e8" x="116.170136" y="137.588973" style="fill: #1f77b4; stroke: #1f77b4"/>
     <use xlink:href="#m7f0f8b68e8" x="115.789918" y="139.263515" style="fill: #1f77b4; stroke: #1f77b4"/>
     <use xlink:href="#m7f0f8b68e8" x="115.531555" y="140.914915" style="fill: #1f77b4; stroke: #1f77b4"/>
     <use xlink:href="#m7f0f8b68e8" x="115.391697" y="142.554598" style="fill: #1f77b4; stroke: #1f77b4"/>
     <use xlink:href="#m7f0f8b68e8" x="115.363636" y="143.686667" style="fill: #1f77b4; stroke: #1f77b4"/>
     <use xlink:href="#m7f0f8b68e8" x="115.445042" y="144.328658" style="fill: #1f77b4; stroke: #1f77b4"/>
     <use xlink:href="#m7f0f8b68e8" x="115.649286" y="144.886041" style="fill: #1f77b4; stroke: #1f77b4"/>
     <use xlink:href="#m7f0f8b68e8" x="115.985438" y="145.44826" style="fill: #1f77b4; stroke: #1f77b4"/>
     <use xlink:href="#m7f0f8b68e8" x="116.4584" y="146.009151" style="fill: #1f77b4; stroke: #1f77b4"/>
     <use xlink:href="#m7f0f8b68e8" x="117.068464" y="146.560801" style="fill: #1f77b4; stroke: #1f77b4"/>
     <use xlink:href="#m7f0f8b68e8" x="117.814522" y="147.097491" style="fill: #1f77b4; stroke: #1f77b4"/>
     <use xlink:href="#m7f0f8b68e8" x="118.696173" y="147.615489" style="fill: #1f77b4; stroke: #1f77b4"/>
     <use xlink:href="#m7f0f8b68e8" x="119.715713" y="148.112718" style="fill: #1f77b4; stroke: #1f77b4"/>
     <use xlink:href="#m7f0f8b68e8" x="120.879278" y="148.588047" style="fill: #1f77b4; stroke: #1f77b4"/>
     <use xlink:href="#m7f0f8b68e8" x="122.197672" y="149.040674" style="fill: #1f77b4; stroke: #1f77b4"/>
     <use xlink:href="#m7f0f8b68e8" x="123.6871" y="149.469595" style="fill: #1f77b4; stroke: #1f77b4"/>
     <use xlink:href="#m7f0f8b68e8" x="125.370032" y="149.873137" style="fill: #1f77b4; stroke: #1f77b4"/>
     <use xlink:href="#m7f0f8b68e8" x="127.276273" y="150.248482" style="fill: #1f77b4; stroke: #1f77b4"/>
     <use xlink:href="#m7f0f8b68e8" x="129.444288" y="150.59114" style="fill: #1f77b4; stroke: #1f77b4"/>
     <use xlink:href="#m7f0f8b68e8" x="131.922462" y="150.894274" style="fill: #1f77b4; stroke: #1f77b4"/>
     <use xlink:href="#m7f0f8b68e8" x="134.769846" y="151.147938" style="fill: #1f77b4; stroke: #1f77b4"/>
     <use xlink:href="#m7f0f8b68e8" x="138.055348" y="151.338309" style="fill: #1f77b4; stroke: #1f77b4"/>
     <use xlink:href="#m7f0f8b68e8" x="141.853037" y="151.447279" style="fill: #1f77b4; stroke: #1f77b4"/>
     <use xlink:href="#m7f0f8b68e8" x="146.23074" y="151.453203" style="fill: #1f77b4; stroke: #1f77b4"/>
     <use xlink:href="#m7f0f8b68e8" x="151.232889" y="151.333825" style="fill: #1f77b4; stroke: #1f77b4"/>
     <use xlink:href="#m7f0f8b68e8" x="156.862868" y="151.07146" style="fill: #1f77b4; stroke: #1f77b4"/>
     <use xlink:href="#m7f0f8b68e8" x="163.075139" y="150.658656" style="fill: #1f77b4; stroke: #1f77b4"/>
     <use xlink:href="#m7f0f8b68e8" x="169.785732" y="150.101081" style="fill: #1f77b4; stroke: #1f77b4"/>
     <use xlink:href="#m7f0f8b68e8" x="176.895505" y="149.415885" style="fill: #1f77b4; stroke: #1f77b4"/>
     <use xlink:href="#m7f0f8b68e8" x="184.311875" y="148.627142" style="fill: #1f77b4; stroke: #1f77b4"/>
     <use xlink:href="#m7f0f8b68e8" x="191.959817" y="147.761297" style="fill: #1f77b4; stroke: #1f77b4"/>
     <use xlink:href="#m7f0f8b68e8" x="199.783733" y="146.844123" style="fill: #1f77b4; stroke: #1f77b4"/>
     <use xlink:href="#m7f0f8b68e8" x="207.743649" y="145.899364" style="fill: #1f77b4; stroke: #1f77b4"/>
     <use xlink:href="#m7f0f8b68e8" x="215.811463" y="144.948244" style="fill: #1f77b4; stroke: #1f77b4"/>
     <use xlink:href="#m7f0f8b68e8" x="223.967086" y="144.009517" style="fill: #1f77b4; stroke: #1f77b4"/>
     <use xlink:href="#m7f0f8b68e8" x="232.195808" y="143.099662" style="fill: #1f77b4; stroke: #1f77b4"/>
     <use xlink:href="#m7f0f8b68e8" x="240.486671" y="142.233083" style="fill: #1f77b4; stroke: #1f77b4"/>
     <use xlink:href="#m7f0f8b68e8" x="248.831153" y="141.422323" style="fill: #1f77b4; stroke: #1f77b4"/>
     <use xlink:href="#m7f0f8b68e8" x="257.222558" y="140.678218" style="fill: #1f77b4; stroke: #1f77b4"/>
     <use xlink:href="#m7f0f8b68e8" x="265.655458" y="140.010038" style="fill: #1f77b4; stroke: #1f77b4"/>
     <use xlink:href="#m7f0f8b68e8" x="274.125136" y="139.425613" style="fill: #1f77b4; stroke: #1f77b4"/>
     <use xlink:href="#m7f0f8b68e8" x="282.627279" y="138.931419" style="fill: #1f77b4; stroke: #1f77b4"/>
     <use xlink:href="#m7f0f8b68e8" x="291.157475" y="138.532645" style="fill: #1f77b4; stroke: #1f77b4"/>
     <use xlink:href="#m7f0f8b68e8" x="299.710194" y="138.233248" style="fill: #1f77b4; stroke: #1f77b4"/>
     <use xlink:href="#m7f0f8b68e8" x="308.276812" y="138.035941" style="fill: #1f77b4; stroke: #1f77b4"/>
     <use xlink:href="#m7f0f8b68e8" x="316.841807" y="137.942054" style="fill: #1f77b4; stroke: #1f77b4"/>
     <use xlink:href="#m7f0f8b68e8" x="325.378648" y="137.951121" style="fill: #1f77b4; stroke: #1f77b4"/>
     <use xlink:href="#m7f0f8b68e8" x="333.901133" y="138.061261" style="fill: #1f77b4; stroke: #1f77b4"/>
     <use xlink:href="#m7f0f8b68e8" x="342.42585" y="138.270472" style="fill: #1f77b4; stroke: #1f77b4"/>
     <use xlink:href="#m7f0f8b68e8" x="350.959394" y="138.576262" style="fill: #1f77b4; stroke: #1f77b4"/>
     <use xlink:href="#m7f0f8b68e8" x="359.504148" y="138.975384" style="fill: #1f77b4; stroke: #1f77b4"/>
     <use xlink:href="#m7f0f8b68e8" x="368.060621" y="139.463747" style="fill: #1f77b4; stroke: #1f77b4"/>
     <use xlink:href="#m7f0f8b68e8" x="376.628659" y="140.03642" style="fill: #1f77b4; stroke: #1f77b4"/>
     <use xlink:href="#m7f0f8b68e8" x="385.207553" y="140.687606" style="fill: #1f77b4; stroke: #1f77b4"/>
     <use xlink:href="#m7f0f8b68e8" x="393.796644" y="141.410688" style="fill: #1f77b4; stroke: #1f77b4"/>
     <use xlink:href="#m7f0f8b68e8" x="402.395169" y="142.198221" style="fill: #1f77b4; stroke: #1f77b4"/>
     <use xlink:href="#m7f0f8b68e8" x="411.002217" y="143.041934" style="fill: #1f77b4; stroke: #1f77b4"/>
     <use xlink:href="#m7f0f8b68e8" x="419.617128" y="143.932782" style="fill: #1f77b4; stroke: #1f77b4"/>
     <use xlink:href="#m7f0f8b68e8" x="428.23909" y="144.860913" style="fill: #1f77b4; stroke: #1f77b4"/>
     <use xlink:href="#m7f0f8b68e8" x="436.867342" y="145.815703" style="fill: #1f77b4; stroke: #1f77b4"/>
     <use xlink:href="#m7f0f8b68e8" x="445.501225" y="146.78577" style="fill: #1f77b4; stroke: #1f77b4"/>
     <use xlink:href="#m7f0f8b68e8" x="454.139977" y="147.758966" style="fill: #1f77b4; stroke: #1f77b4"/>
     <use xlink:href="#m7f0f8b68e8" x="462.782991" y="148.722411" style="fill: #1f77b4; stroke: #1f77b4"/>
     <use xlink:href="#m7f0f8b68e8" x="471.429505" y="149.662474" style="fill: #1f77b4; stroke: #1f77b4"/>
     <use xlink:href="#m7f0f8b68e8" x="480.078911" y="150.564815" style="fill: #1f77b4; stroke: #1f77b4"/>
     <use xlink:href="#m7f0f8b68e8" x="488.730548" y="151.414378" style="fill: #1f77b4; stroke: #1f77b4"/>
     <use xlink:href="#m7f0f8b68e8" x="497.383708" y="152.195401" style="fill: #1f77b4; stroke: #1f77b4"/>
     <use xlink:href="#m7f0f8b68e8" x="506.03778" y="152.891443" style="fill: #1f77b4; stroke: #1f77b4"/>
     <use xlink:href="#m7f0f8b68e8" x="514.691954" y="153.485378" style="fill: #1f77b4; stroke: #1f77b4"/>
     <use xlink:href="#m7f0f8b68e8" x="523.345468" y="153.959427" style="fill: #1f77b4; stroke: #1f77b4"/>
     <use xlink:href="#m7f0f8b68e8" x="531.997258" y="154.29517" style="fill: #1f77b4; stroke: #1f77b4"/>
     <use xlink:href="#m7f0f8b68e8" x="540.6457" y="154.473581" style="fill: #1f77b4; stroke: #1f77b4"/>
     <use xlink:href="#m7f0f8b68e8" x="549.288105" y="154.475131" style="fill: #1f77b4; stroke: #1f77b4"/>
     <use xlink:href="#m7f0f8b68e8" x="557.919299" y="154.279995" style="fill: #1f77b4; stroke: #1f77b4"/>
     <use xlink:href="#m7f0f8b68e8" x="566.528782" y="153.86863" style="fill: #1f77b4; stroke: #1f77b4"/>
     <use xlink:href="#m7f0f8b68e8" x="575.094791" y="153.223206" style="fill: #1f77b4; stroke: #1f77b4"/>
     <use xlink:href="#m7f0f8b68e8" x="583.572585" y="152.331052" style="fill: #1f77b4; stroke: #1f77b4"/>
     <use xlink:href="#m7f0f8b68e8" x="591.874101" y="151.192135" style="fill: #1f77b4; stroke: #1f77b4"/>
     <use xlink:href="#m7f0f8b68e8" x="599.841779" y="149.832441" style="fill: #1f77b4; stroke: #1f77b4"/>
     <use xlink:href="#m7f0f8b68e8" x="607.241764" y="148.31881" style="fill: #1f77b4; stroke: #1f77b4"/>
     <use xlink:href="#m7f0f8b68e8" x="613.822449" y="146.75682" style="fill: #1f77b4; stroke: #1f77b4"/>
     <use xlink:href="#m7f0f8b68e8" x="619.432715" y="145.255804" style="fill: #1f77b4; stroke: #1f77b4"/>
     <use xlink:href="#m7f0f8b68e8" x="622.636364" y="144.325835" style="fill: #1f77b4; stroke: #1f77b4"/>
    </g>
   </g>
  </g>
 </g>
 <defs>
  <clipPath id="p062da1e590">
   <rect x="90" y="59.145356" width="558" height="99.869288"/>
  </clipPath>
 </defs>
</svg>
